HIERARCHY
ROOT Hips
{
	OFFSET 0.000000 0.000000 0.000000
	CHANNELS 6 Xposition Yposition Zposition Yrotation Xrotation Zrotation
	JOINT Spine
	{
		OFFSET 0.000000 -0.000000 1.489414
		CHANNELS 6 Xposition Yposition Zposition Yrotation Xrotation Zrotation
		JOINT Spine1
		{
			OFFSET 0.000000 -0.000001 4.064482
			CHANNELS 6 Xposition Yposition Zposition Yrotation Xrotation Zrotation
			JOINT Neck
			{
				OFFSET 0.000000 -0.000001 4.427754
				CHANNELS 6 Xposition Yposition Zposition Yrotation Xrotation Zrotation
				JOINT Head
				{
					OFFSET 0.000000 -0.363272 2.815356
					CHANNELS 6 Xposition Yposition Zposition Yrotation Xrotation Zrotation
					End Site
					{
						OFFSET 0.000000 -0.000001 3.632717
					}
				}
			}
			JOINT LeftShoulder
			{
				OFFSET 0.731535 0.096024 3.575184
				CHANNELS 6 Xposition Yposition Zposition Yrotation Xrotation Zrotation
				JOINT LeftArm
				{
					OFFSET 2.610319 0.000000 0.000000
					CHANNELS 6 Xposition Yposition Zposition Yrotation Xrotation Zrotation
					JOINT LeftForeArm
					{
						OFFSET 5.118421 0.000000 0.000000
						CHANNELS 6 Xposition Yposition Zposition Yrotation Xrotation Zrotation
						JOINT LeftHand
						{
							OFFSET 4.756909 0.000000 0.000000
							CHANNELS 6 Xposition Yposition Zposition Yrotation Xrotation Zrotation
							End Site
							{
								OFFSET 2.724539 0.000000 0.000000
							}
						}
					}
				}
			}
			JOINT RightShoulder
			{
				OFFSET -0.721442 0.096024 3.575184
				CHANNELS 6 Xposition Yposition Zposition Yrotation Xrotation Zrotation
				JOINT RightArm
				{
					OFFSET -2.610319 0.000000 0.000000
					CHANNELS 6 Xposition Yposition Zposition Yrotation Xrotation Zrotation
					JOINT RightForeArm
					{
						OFFSET -5.118422 0.000000 0.000000
						CHANNELS 6 Xposition Yposition Zposition Yrotation Xrotation Zrotation
						JOINT RightHand
						{
							OFFSET -4.756909 0.000000 0.000000
							CHANNELS 6 Xposition Yposition Zposition Yrotation Xrotation Zrotation
							End Site
							{
								OFFSET -2.724539 0.000000 0.000000
							}
						}
					}
				}
			}
		}
	}
	JOINT LeftUpLeg
	{
		OFFSET 1.816359 0.000000 0.000000
		CHANNELS 6 Xposition Yposition Zposition Yrotation Xrotation Zrotation
		JOINT LeftLeg
		{
			OFFSET 0.000000 0.000001 -7.638974
			CHANNELS 6 Xposition Yposition Zposition Yrotation Xrotation Zrotation
			JOINT LeftFoot
			{
				OFFSET 0.000000 0.000001 -8.008609
				CHANNELS 6 Xposition Yposition Zposition Yrotation Xrotation Zrotation
				JOINT LeftToeBase
				{
					OFFSET 0.000000 -2.724539 -1.180634
					CHANNELS 6 Xposition Yposition Zposition Yrotation Xrotation Zrotation
					End Site
					{
						OFFSET 0.000000 -0.726544 0.000000
					}
				}
			}
		}
	}
	JOINT RightUpLeg
	{
		OFFSET -1.816359 0.000000 0.000000
		CHANNELS 6 Xposition Yposition Zposition Yrotation Xrotation Zrotation
		JOINT RightLeg
		{
			OFFSET 0.000000 0.000001 -7.638974
			CHANNELS 6 Xposition Yposition Zposition Yrotation Xrotation Zrotation
			JOINT RightFoot
			{
				OFFSET 0.000000 0.000001 -8.008609
				CHANNELS 6 Xposition Yposition Zposition Yrotation Xrotation Zrotation
				JOINT RightToeBase
				{
					OFFSET 0.000000 -2.724539 -1.180634
					CHANNELS 6 Xposition Yposition Zposition Yrotation Xrotation Zrotation
					End Site
					{
						OFFSET 0.000000 -0.726544 0.000000
					}
				}
			}
		}
	}
}
MOTION
Frames: 4
Frame Time: 0.041667
1.266585 0.147483 16.001276 -0.733415 3.682163 1.124260 0.000000 -0.000000 1.489414 2.089816 -18.238340 -2.409523 -0.000000 -0.000002 4.064483 -5.144276 18.314971 -1.534994 -0.000000 -0.000001 4.427755 -5.809329 9.852773 4.230652 0.000001 -0.363272 2.815359 5.725052 5.634321 6.660265 0.731535 0.096024 3.575188 -21.113320 -8.213578 3.126276 2.610321 0.000000 0.000002 14.356622 0.390979 -10.885602 5.118421 -0.000000 -0.000002 -5.045220 -9.399101 -8.583996 4.756912 -0.000001 0.000002 7.390808 -8.906706 -1.865258 -0.721442 0.096024 3.575186 17.757409 -2.249667 -10.528737 -2.610319 -0.000001 -0.000002 2.043835 28.296089 23.116541 -5.118419 -0.000001 -0.000001 48.315539 -33.293672 74.986304 -4.756911 0.000001 0.000002 34.595622 4.569983 3.818931 1.816359 -0.000000 -0.000000 2.506345 -6.898632 -2.129779 -0.000000 0.000001 -7.638973 -0.964984 13.556956 1.614534 -0.000000 0.000001 -8.008608 -2.797938 -5.533752 21.762844 -0.000001 -2.724539 -1.180634 0.000000 0.000002 -0.000002 -1.816359 -0.000000 0.000000 -1.229186 -5.827317 0.896921 0.000000 0.000001 -7.638973 -1.934274 12.771490 -1.168734 -0.000000 0.000001 -8.008610 1.122220 -12.180428 -21.376052 0.000000 -2.724539 -1.180634 -0.000000 -0.000001 0.000001 
1.272045 0.150490 16.002228 -0.756608 3.756178 1.126035 -0.000000 -0.000000 1.489413 2.090044 -18.209021 -2.406474 0.000000 -0.000002 4.064483 -5.121619 18.230641 -1.526507 0.000000 -0.000000 4.427752 -5.796369 9.814893 4.253408 -0.000000 -0.363274 2.815359 5.725597 5.621156 6.678435 0.731535 0.096024 3.575184 -21.091894 -8.190247 3.145784 2.610319 -0.000000 -0.000003 14.384971 0.272915 -10.920603 5.118423 -0.000000 0.000002 -5.023702 -9.344436 -8.587814 4.756910 -0.000000 0.000003 7.397459 -8.853615 -1.859891 -0.721442 0.096025 3.575185 17.779199 -2.241973 -10.494420 -2.610319 -0.000000 -0.000002 1.990754 28.361865 23.043057 -5.118419 -0.000002 -0.000002 48.376481 -33.391005 74.979023 -4.756909 0.000003 0.000002 34.590892 4.534917 3.744089 1.816359 0.000000 -0.000001 2.549680 -7.482965 -2.144150 0.000000 0.000001 -7.638974 -0.892908 14.541628 1.326926 -0.000000 0.000001 -8.008609 -2.899197 -5.830094 22.082092 -0.000000 -2.724539 -1.180634 0.000000 0.000003 0.000000 -1.816359 0.000000 -0.000001 -1.137021 -5.920659 0.906263 0.000000 0.000001 -7.638975 -2.029459 12.794607 -1.168396 -0.000000 0.000001 -8.008608 1.145135 -12.185747 -21.393882 -0.000000 -2.724539 -1.180633 0.000000 0.000001 0.000002 
1.278333 0.154317 16.003475 -0.779486 3.831244 1.143856 -0.000000 -0.000000 1.489415 2.091439 -18.156586 -2.413423 0.000000 -0.000001 4.064483 -5.099094 18.124056 -1.520534 -0.000000 -0.000001 4.427752 -5.765555 9.753570 4.276093 -0.000000 -0.363272 2.815351 5.704047 5.636433 6.688910 0.731535 0.096024 3.575182 -21.077539 -8.169664 3.155908 2.610318 0.000000 -0.000001 14.411769 0.258949 -10.921099 5.118423 -0.000000 -0.000001 -5.020715 -9.359456 -8.612197 4.756914 0.000001 -0.000002 7.382823 -8.868423 -1.854113 -0.721442 0.096024 3.575181 17.791835 -2.247714 -10.500183 -2.610318 -0.000000 -0.000007 1.978048 28.404265 23.019751 -5.118419 -0.000001 0.000001 48.443690 -33.454782 74.966831 -4.756908 0.000000 -0.000000 34.552100 4.531154 3.709921 1.816359 -0.000000 0.000000 2.599498 -8.128794 -2.128295 -0.000000 0.000001 -7.638974 -0.835884 15.651066 1.091263 0.000000 0.000001 -8.008609 -3.196124 -6.205203 22.259808 -0.000000 -2.724539 -1.180634 -0.000000 0.000002 -0.000001 -1.816359 -0.000000 0.000001 -1.040015 -6.017964 0.916561 -0.000000 0.000001 -7.638976 -2.133538 12.810380 -1.213688 -0.000000 0.000001 -8.008608 1.143038 -12.181565 -21.398546 -0.000000 -2.724539 -1.180634 0.000001 -0.000001 0.000002 
1.285880 0.158497 16.004795 -0.801674 3.903082 1.191614 0.000000 -0.000000 1.489416 2.070406 -18.097561 -2.434605 0.000000 -0.000001 4.064483 -5.034173 18.017585 -1.513706 -0.000000 -0.000001 4.427757 -5.748858 9.700458 4.293970 0.000000 -0.363273 2.815355 5.691918 5.615066 6.697840 0.731535 0.096024 3.575184 -21.080447 -8.126617 3.173645 2.610320 0.000000 -0.000001 14.443367 0.221286 -10.946159 5.118423 -0.000000 -0.000000 -5.021750 -9.372618 -8.615118 4.756910 0.000001 0.000003 7.399987 -8.883719 -1.813377 -0.721442 0.096024 3.575190 17.785393 -2.221310 -10.505346 -2.610320 -0.000000 -0.000001 1.926467 28.295100 22.977388 -5.118419 -0.000002 -0.000001 47.714281 -33.691185 75.363911 -4.756910 0.000001 -0.000000 33.169714 2.958968 6.715861 1.816359 -0.000000 0.000002 2.658705 -8.832514 -2.219103 -0.000000 0.000001 -7.638974 -0.750827 16.892250 0.725808 0.000000 0.000001 -8.008608 -3.375087 -6.791274 22.695153 0.000000 -2.724538 -1.180634 -0.000000 0.000001 -0.000001 -1.816359 -0.000000 0.000002 -0.934711 -6.113754 0.925463 0.000000 0.000001 -7.638971 -2.243380 12.816915 -1.646666 -0.000000 0.000001 -8.008610 1.084781 -12.165498 -21.037384 -0.000000 -2.724539 -1.180634 0.000001 0.000000 -0.000000 
